<?xml version="1.0" encoding="utf-8"?>
<!-- Generator: Adobe Illustrator 25.3.1, SVG Export Plug-In . SVG Version: 6.00 Build 0)  -->
<svg version="1.1" id="Layer_1" xmlns="http://www.w3.org/2000/svg" xmlns:xlink="http://www.w3.org/1999/xlink" x="0px" y="0px"
	 viewBox="0 0 73.4 78.1" style="enable-background:new 0 0 73.4 78.1;" xml:space="preserve">
<style type="text/css">
	.st0{fill:url(#SVGID_1_);stroke:#F8AF18;stroke-width:0.5;stroke-miterlimit:10;}
	.st1{fill:none;stroke:#FBBF24;stroke-width:2;stroke-linecap:round;stroke-miterlimit:10;}
	.st2{fill:url(#SVGID_2_);stroke:#E6EFFC;stroke-width:0.5;stroke-miterlimit:10;}
</style>
<linearGradient id="SVGID_1_" gradientUnits="userSpaceOnUse" x1="15.2493" y1="1031.5305" x2="22.9803" y2="1044.9205" gradientTransform="matrix(1 0 0 1 0 -1014)">
	<stop  offset="0" style="stop-color:#FBBF24"/>
	<stop  offset="0.45" style="stop-color:#FBBF24"/>
	<stop  offset="1" style="stop-color:#F59E0B"/>
</linearGradient>
<circle class="st0" cx="19.1" cy="24.2" r="7.7"/>
<path class="st1" d="M19.1,11.3V6.4 M19.1,42v-4.9 M28.2,15.1l3.5-3.5 M6.5,36.8l3.5-3.5 M10,15.1l-3.5-3.5 M31.7,36.8l-3.5-3.5
	 M1.3,24.2h4.9 M36.9,24.2H32">
<animateTransform  accumulate="none" additive="replace" attributeName="transform" calcMode="linear" dur="45s" fill="remove" repeatCount="indefinite" restart="always" type="rotate" values="0 19 24; 360 19 24">
		</animateTransform>
</path>
<linearGradient id="SVGID_2_" gradientUnits="userSpaceOnUse" x1="24.6696" y1="1035.0234" x2="50.3761" y2="1079.5773" gradientTransform="matrix(1 0 0 1 0 -1014)">
	<stop  offset="0" style="stop-color:#F3F7FE"/>
	<stop  offset="0.45" style="stop-color:#F3F7FE"/>
	<stop  offset="1" style="stop-color:#DEEAFB"/>
</linearGradient>
<path class="st2" d="M61.6,35.8h-0.5c2.1-8.7-3.2-17.5-11.9-19.6c-6.8-1.7-13.9,1.3-17.6,7.2c-5.1-3-11.8-1.4-14.8,3.8
	c-1,1.7-1.5,3.6-1.5,5.5c0,0.6,0.1,1.2,0.2,1.8C9.1,35.7,5,41.8,6.3,48.1c1.1,5.4,5.8,9.3,11.3,9.4c0.3,0,0.5,0,0.8,0l0,0h43.3
	c6,0,10.8-4.8,10.8-10.8S67.6,35.8,61.6,35.8z"/>
</svg>
