<?xml version="1.0" encoding="utf-8"?>
<!-- Generator: Adobe Illustrator 25.3.1, SVG Export Plug-In . SVG Version: 6.00 Build 0)  -->
<svg version="1.1" id="Layer_1" xmlns="http://www.w3.org/2000/svg" xmlns:xlink="http://www.w3.org/1999/xlink" x="0px" y="0px"
	 viewBox="0 0 64 68.1" style="enable-background:new 0 0 64 68.1;" xml:space="preserve">
<style type="text/css">
	.st0{fill:url(#SVGID_1_);stroke:#E6EFFC;stroke-width:0.5;stroke-miterlimit:10;}
</style>
<linearGradient id="SVGID_1_" gradientUnits="userSpaceOnUse" x1="19.0867" y1="1032.3911" x2="41.7151" y2="1071.6102" gradientTransform="matrix(1 0 0 1 0 -1014)">
	<stop  offset="0" style="stop-color:#F3F7FE"/>
	<stop  offset="0.45" style="stop-color:#F3F7FE"/>
	<stop  offset="1" style="stop-color:#DEEAFB"/>
</linearGradient>
<path class="st0" d="M51.8,31.4h-0.4c1.8-7.7-2.9-15.4-10.5-17.2c-6-1.5-12.2,1.1-15.5,6.4c-4.6-2.7-10.4-1.2-13.1,3.3
	c-0.9,1.5-1.3,3.1-1.4,4.8c0,0.5,0,1.1,0.1,1.6c-5.5,1.1-9.1,6.5-8.1,12c1,4.8,5.1,8.2,10,8.3c0.2,0,0.4,0,0.6,0l0,0h38.1
	c5.2,0,9.6-4.3,9.6-9.6S57,31.4,51.8,31.4z">
<animateTransform  accumulate="none" additive="replace" attributeName="transform" calcMode="linear" dur="7s" fill="remove" repeatCount="indefinite" restart="always" type="translate" values="-3 0; 3 0; -3 0">
		</animateTransform>
</path>
</svg>
