<?xml version="1.0" encoding="utf-8"?>
<!-- Generator: Adobe Illustrator 25.3.1, SVG Export Plug-In . SVG Version: 6.00 Build 0)  -->
<svg version="1.1" id="Layer_1" xmlns="http://www.w3.org/2000/svg" xmlns:xlink="http://www.w3.org/1999/xlink" x="0px" y="0px"
	 viewBox="0 0 84.5 78.1" style="enable-background:new 0 0 84.5 78.1;" xml:space="preserve">
<style type="text/css">
	.st0{fill:url(#SVGID_1_);stroke:#F8AF18;stroke-width:0.5;stroke-miterlimit:10;}
	.st1{fill:none;stroke:#FBBF24;stroke-width:2;stroke-linecap:round;stroke-miterlimit:10;}
	.st2{fill:url(#SVGID_2_);stroke:#848B98;stroke-width:0.5;stroke-miterlimit:10;}
	.st3{fill:url(#SVGID_3_);stroke:#E6EFFC;stroke-width:0.5;stroke-miterlimit:10;}
</style>
<linearGradient id="SVGID_1_" gradientUnits="userSpaceOnUse" x1="15.507" y1="48.1261" x2="23.2059" y2="34.7915" gradientTransform="matrix(1 0 0 -1 0 66)">
	<stop  offset="0" style="stop-color:#FBBF24"/>
	<stop  offset="0.45" style="stop-color:#FBBF24"/>
	<stop  offset="1" style="stop-color:#F59E0B"/>
</linearGradient>
<circle class="st0" cx="19.4" cy="24.5" r="7.7"/>
<path class="st1" d="M19.4,11.7V6.8 M19.4,42.2v-4.9 M28.4,15.5l3.4-3.4 M6.8,37.1l3.4-3.4 M10.3,15.5L6.8,12 M31.9,37.1l-3.4-3.4
	 M1.7,24.5h4.9 M37.1,24.5h-4.9">
<animateTransform  accumulate="none" additive="replace" attributeName="transform" calcMode="linear" dur="45s" fill="remove" repeatCount="indefinite" restart="always" type="rotate" values="0 19 24; 360 19 24">
		</animateTransform>
</path>
<linearGradient id="SVGID_2_" gradientUnits="userSpaceOnUse" x1="52.9075" y1="43.028" x2="68.4155" y2="16.1393" gradientTransform="matrix(1 0 0 -1 0 66)">
	<stop  offset="0" style="stop-color:#9CA3AF"/>
	<stop  offset="0.45" style="stop-color:#9CA3AF"/>
	<stop  offset="1" style="stop-color:#6B7280"/>
</linearGradient>
<path class="st2" d="M42.8,39.1c0,3.4,2.8,6.2,6.2,6.2h25.4c3.7,0,6.7-2.9,6.7-6.6c0-3.2-2.3-6-5.5-6.6c0.1-0.3,0.1-0.7,0.1-1
	c0-3.5-2.8-6.2-6.3-6.2c-1.1,0-2.2,0.3-3.2,0.9c-2.7-4.4-8.5-5.8-12.9-3c-2.8,1.7-4.4,4.7-4.4,7.9c0,0.8,0.1,1.5,0.3,2.2H49
	C45.6,32.8,42.8,35.6,42.8,39.1C42.8,39,42.8,39.1,42.8,39.1z">
<animateTransform  accumulate="none" additive="replace" attributeName="transform" calcMode="linear" dur="7s" fill="remove" repeatCount="indefinite" restart="always" type="translate" values="-2.1 0; 2.1 0; -2.1 0">
		</animateTransform>
</path>
<linearGradient id="SVGID_3_" gradientUnits="userSpaceOnUse" x1="24.8778" y1="44.5913" x2="50.4781" y2="0.2216" gradientTransform="matrix(1 0 0 -1 0 66)">
	<stop  offset="0" style="stop-color:#F3F7FE"/>
	<stop  offset="0.45" style="stop-color:#F3F7FE"/>
	<stop  offset="1" style="stop-color:#DEEAFB"/>
</linearGradient>
<path class="st3" d="M61.7,36.1h-0.5c2.1-8.7-3.2-17.4-11.9-19.5c-6.8-1.6-13.9,1.3-17.5,7.2c-5.1-3-11.7-1.3-14.8,3.8
	c-1,1.7-1.5,3.5-1.5,5.5c0,0.6,0.1,1.2,0.2,1.8C9.4,36,5.3,42.1,6.6,48.3c1.1,5.4,5.8,9.3,11.3,9.3c0.3,0,0.5,0,0.8,0l0,0h43.1
	c6,0,10.8-4.8,10.8-10.8S67.6,36.1,61.7,36.1z">
<animateTransform  accumulate="none" additive="replace" attributeName="transform" calcMode="linear" dur="7s" fill="remove" repeatCount="indefinite" restart="always" type="translate" values="-3 0; 3 0; -3 0">
		</animateTransform>
</path>
</svg>
