<?xml version="1.0" encoding="utf-8"?>
<!-- Generator: Adobe Illustrator 25.3.1, SVG Export Plug-In . SVG Version: 6.00 Build 0)  -->
<svg version="1.1" id="Layer_1" xmlns="http://www.w3.org/2000/svg" xmlns:xlink="http://www.w3.org/1999/xlink" x="0px" y="0px"
	 viewBox="0 0 84 78.1" style="enable-background:new 0 0 84 78.1;" xml:space="preserve">
<style type="text/css">
	.st0{fill:url(#SVGID_1_);stroke:#72B9D5;stroke-width:0.5;stroke-linecap:round;stroke-linejoin:round;}
	.st1{fill:url(#SVGID_2_);stroke:#848B98;stroke-width:0.5;stroke-miterlimit:10;}
	.st2{fill:url(#SVGID_3_);stroke:#E6EFFC;stroke-width:0.5;stroke-miterlimit:10;}
</style>
<linearGradient id="SVGID_1_" gradientUnits="userSpaceOnUse" x1="10.3028" y1="54.4828" x2="26.7015" y2="26.0916" gradientTransform="matrix(1 0 0 -1 0 66)">
	<stop  offset="0" style="stop-color:#86C3DB"/>
	<stop  offset="0.45" style="stop-color:#86C3DB"/>
	<stop  offset="1" style="stop-color:#5EAFCF"/>
</linearGradient>
<path class="st0" d="M34.6,28.8c-9.1,0.1-16.5-7.3-16.6-16.4c0,0,0,0,0,0c0-1.4,0.2-2.8,0.5-4.1c-9,1.1-15.3,9.3-14.2,18.2
	S13.6,42,22.6,40.8c6.7-0.8,12.1-5.6,13.8-12.1C35.8,28.8,35.2,28.8,34.6,28.8z">
<animateTransform  accumulate="none" additive="replace" attributeName="transform" calcMode="linear" dur="10s" fill="remove" repeatCount="indefinite" restart="always" type="rotate" values="-10 19.22 24.293; 10 19.22 24.293; -10 19.22 24.293">
		</animateTransform>
</path>
<linearGradient id="SVGID_2_" gradientUnits="userSpaceOnUse" x1="52.3825" y1="42.9046" x2="68.0106" y2="15.8075" gradientTransform="matrix(1 0 0 -1 0 66)">
	<stop  offset="0" style="stop-color:#9CA3AF"/>
	<stop  offset="0.45" style="stop-color:#9CA3AF"/>
	<stop  offset="1" style="stop-color:#6B7280"/>
</linearGradient>
<path class="st1" d="M42.2,39.3c0,3.4,2.8,6.2,6.3,6.2h25.6c3.7,0,6.8-3,6.8-6.7c0-3.3-2.3-6.1-5.5-6.7c0.1-0.3,0.1-0.7,0.1-1
	c0-3.5-2.8-6.3-6.3-6.3c-1.1,0-2.2,0.3-3.2,0.9c-2.7-4.4-8.6-5.8-13-3.1c-2.8,1.7-4.5,4.7-4.5,8c0,0.8,0.1,1.5,0.3,2.3h-0.3
	C45,33,42.2,35.8,42.2,39.3C42.2,39.3,42.2,39.3,42.2,39.3z">
<animateTransform  accumulate="none" additive="replace" attributeName="transform" calcMode="linear" dur="7s" fill="remove" repeatCount="indefinite" restart="always" type="translate" values="-2.1 0; 2.1 0; -2.1 0">
		</animateTransform>
</path>
<linearGradient id="SVGID_3_" gradientUnits="userSpaceOnUse" x1="24.1355" y1="44.48" x2="49.9341" y2="-0.2336" gradientTransform="matrix(1 0 0 -1 0 66)">
	<stop  offset="0" style="stop-color:#F3F7FE"/>
	<stop  offset="0.45" style="stop-color:#F3F7FE"/>
	<stop  offset="1" style="stop-color:#DEEAFB"/>
</linearGradient>
<path class="st2" d="M61.2,36.3h-0.5c2.1-8.7-3.2-17.5-12-19.7c-6.8-1.7-14,1.3-17.7,7.2c-5.2-3.1-11.8-1.4-14.9,3.8
	c-1,1.7-1.5,3.6-1.5,5.5c0,0.6,0.1,1.2,0.2,1.8c-6.3,1.2-10.4,7.3-9.2,13.7C6.7,54.1,11.5,58,17,58c0.3,0,0.5,0,0.8,0l0,0h43.4
	c6,0,10.9-4.9,10.9-10.9S67.2,36.3,61.2,36.3z">
<animateTransform  accumulate="none" additive="replace" attributeName="transform" calcMode="linear" dur="7s" fill="remove" repeatCount="indefinite" restart="always" type="translate" values="-3 0; 3 0; -3 0">
		</animateTransform>
</path>
</svg>
