<?xml version="1.0" encoding="utf-8"?>
<!-- Generator: Adobe Illustrator 25.3.1, SVG Export Plug-In . SVG Version: 6.00 Build 0)  -->
<svg version="1.1" id="Layer_1" xmlns="http://www.w3.org/2000/svg" xmlns:xlink="http://www.w3.org/1999/xlink" x="0px" y="0px"
	 viewBox="0 0 73.4 78.1" style="enable-background:new 0 0 73.4 78.1;" xml:space="preserve">
<style type="text/css">
	.st0{fill:url(#SVGID_1_);stroke:#F8AF18;stroke-width:0.5;stroke-miterlimit:10;}
	.st1{fill:none;stroke:#FBBF24;stroke-width:2;stroke-linecap:round;stroke-miterlimit:10;}
	.st2{fill:url(#SVGID_2_);stroke:#E6EFFC;stroke-width:0.5;stroke-miterlimit:10;}
	.st3{fill:none;stroke:url(#SVGID_3_);stroke-width:2;stroke-linecap:round;stroke-miterlimit:10;}
	.st4{fill:none;stroke:url(#SVGID_4_);stroke-width:2;stroke-linecap:round;stroke-miterlimit:10;}
	.st5{fill:none;stroke:url(#SVGID_5_);stroke-width:2;stroke-linecap:round;stroke-miterlimit:10;}
	.st6{display:none;fill:url(#SVGID_6_);stroke:#F8AF18;stroke-width:0.5;stroke-miterlimit:10;}
</style>
<linearGradient id="SVGID_1_" gradientUnits="userSpaceOnUse" x1="15.178" y1="48.6604" x2="22.9331" y2="35.2285" gradientTransform="matrix(1 0 0 -1 0 66)">
	<stop  offset="0" style="stop-color:#FBBF24"/>
	<stop  offset="0.45" style="stop-color:#FBBF24"/>
	<stop  offset="1" style="stop-color:#F59E0B"/>
</linearGradient>
<circle class="st0" cx="19.1" cy="24.1" r="7.8"/>
<path class="st1" d="M19.1,11.1V6.2 M19.1,41.9V37 M28.2,14.9l3.5-3.5 M6.4,36.7l3.5-3.5 M9.9,14.9l-3.5-3.5 M31.7,36.7l-3.5-3.5
	 M1.2,24.1h4.9 M36.9,24.1H32">
<animateTransform  accumulate="none" additive="replace" attributeName="transform" calcMode="linear" dur="45s" fill="remove" repeatCount="indefinite" restart="always" type="rotate" values="0 19 24; 360 19 24">
		</animateTransform>
</path>
<linearGradient id="SVGID_2_" gradientUnits="userSpaceOnUse" x1="24.6172" y1="45.0998" x2="50.404" y2="0.4067" gradientTransform="matrix(1 0 0 -1 0 66)">
	<stop  offset="0" style="stop-color:#F3F7FE"/>
	<stop  offset="0.45" style="stop-color:#F3F7FE"/>
	<stop  offset="1" style="stop-color:#DEEAFB"/>
</linearGradient>
<path class="st2" d="M61.7,35.7h-0.5C63.3,27,58,18.2,49.2,16c-6.8-1.7-14,1.3-17.7,7.2c-5.2-3.1-11.8-1.4-14.9,3.8
	c-1,1.7-1.5,3.6-1.5,5.5c0,0.6,0.1,1.2,0.2,1.8C9,35.6,4.9,41.7,6.2,48c1.1,5.4,5.8,9.4,11.3,9.4c0.3,0,0.5,0,0.8,0l0,0h43.4
	c6,0,10.9-4.9,10.9-10.9S67.7,35.7,61.7,35.7z"/>
<linearGradient id="SVGID_3_" gradientUnits="userSpaceOnUse" x1="24.8033" y1="12.0834" x2="28.8151" y2="5.1243" gradientTransform="matrix(1 0 0 -1 0 66)">
	<stop  offset="0" style="stop-color:#4286EE"/>
	<stop  offset="0.45" style="stop-color:#4286EE"/>
	<stop  offset="1" style="stop-color:#0950BC"/>
</linearGradient>
<line class="st3" x1="27.4" y1="53.6" x2="26.2" y2="61.2">
<animateTransform  accumulate="none" additive="replace" attributeName="transform" calcMode="linear" dur="0.7s" fill="remove" repeatCount="indefinite" restart="always" type="translate" values="1 -5; -2 10">
	</animateTransform>
<animate  accumulate="none" additive="replace" attributeName="opacity" calcMode="linear" dur="0.7s" fill="remove" repeatCount="indefinite" restart="always" values="0;1;1;0">
	</animate>
</line>
<linearGradient id="SVGID_4_" gradientUnits="userSpaceOnUse" x1="35.6584" y1="12.0834" x2="39.6701" y2="5.1243" gradientTransform="matrix(1 0 0 -1 0 66)">
	<stop  offset="0" style="stop-color:#4286EE"/>
	<stop  offset="0.45" style="stop-color:#4286EE"/>
	<stop  offset="1" style="stop-color:#0950BC"/>
</linearGradient>
<line class="st4" x1="38.3" y1="53.6" x2="37.1" y2="61.2">
<animateTransform  accumulate="none" additive="replace" attributeName="transform" begin="-0.4s" calcMode="linear" dur="0.7s" fill="remove" repeatCount="indefinite" restart="always" type="translate" values="1 -5; -2 10">
	</animateTransform>
<animate  accumulate="none" additive="replace" attributeName="opacity" begin="-0.4s" calcMode="linear" dur="0.7s" fill="remove" repeatCount="indefinite" restart="always" values="0;1;1;0">
	</animate>
</line>
<linearGradient id="SVGID_5_" gradientUnits="userSpaceOnUse" x1="46.5134" y1="12.0834" x2="50.5252" y2="5.1243" gradientTransform="matrix(1 0 0 -1 0 66)">
	<stop  offset="0" style="stop-color:#4286EE"/>
	<stop  offset="0.45" style="stop-color:#4286EE"/>
	<stop  offset="1" style="stop-color:#0950BC"/>
</linearGradient>
<line class="st5" x1="49.1" y1="53.6" x2="47.9" y2="61.2">
<animateTransform  accumulate="none" additive="replace" attributeName="transform" begin="-0.2s" calcMode="linear" dur="0.7s" fill="remove" repeatCount="indefinite" restart="always" type="translate" values="1 -5; -2 10">
	</animateTransform>
<animate  accumulate="none" additive="replace" attributeName="opacity" begin="-0.2s" calcMode="linear" dur="0.7s" fill="remove" repeatCount="indefinite" restart="always" values="0;1;1;0">
	</animate>
</line>
<linearGradient id="SVGID_6_" gradientUnits="userSpaceOnUse" x1="16.4995" y1="46.3308" x2="21.5005" y2="37.6692" gradientTransform="matrix(1 0 0 -1 0 66)">
	<stop  offset="0" style="stop-color:#FBBF24"/>
	<stop  offset="0.45" style="stop-color:#FBBF24"/>
	<stop  offset="1" style="stop-color:#F59E0B"/>
</linearGradient>
<circle class="st6" cx="19" cy="24" r="5"/>
</svg>
