<?xml version="1.0" encoding="utf-8"?>
<!-- Generator: Adobe Illustrator 25.3.1, SVG Export Plug-In . SVG Version: 6.00 Build 0)  -->
<svg version="1.1" id="Layer_1" xmlns="http://www.w3.org/2000/svg" xmlns:xlink="http://www.w3.org/1999/xlink" x="0px" y="0px"
	 viewBox="0 0 73.4 78.1" style="enable-background:new 0 0 73.4 78.1;" xml:space="preserve">
<style type="text/css">
	.st0{fill:url(#SVGID_1_);stroke:#72B9D5;stroke-width:0.5;stroke-linecap:round;stroke-linejoin:round;}
	.st1{fill:url(#SVGID_2_);stroke:#E6EFFC;stroke-width:0.5;stroke-miterlimit:10;}
	.st2{fill:none;stroke:url(#SVGID_3_);stroke-width:2;stroke-linecap:round;stroke-miterlimit:10;}
	.st3{fill:none;stroke:url(#SVGID_4_);stroke-width:2;stroke-linecap:round;stroke-miterlimit:10;}
	.st4{fill:none;stroke:url(#SVGID_5_);stroke-width:2;stroke-linecap:round;stroke-miterlimit:10;}
</style>
<linearGradient id="SVGID_1_" gradientUnits="userSpaceOnUse" x1="10.7162" y1="54.8265" x2="27.1124" y2="26.4395" gradientTransform="matrix(1 0 0 -1 0 66)">
	<stop  offset="0" style="stop-color:#86C3DB"/>
	<stop  offset="0.45" style="stop-color:#86C3DB"/>
	<stop  offset="1" style="stop-color:#5EAFCF"/>
</linearGradient>
<path class="st0" d="M35,28.5c-9.1,0.1-16.5-7.3-16.6-16.3c0,0,0,0,0,0c0-1.4,0.2-2.8,0.5-4.1C10,9.2,3.7,17.3,4.8,26.3
	S14.1,41.6,23,40.5c6.7-0.8,12.1-5.6,13.8-12.1C36.2,28.4,35.6,28.5,35,28.5z">
<animateTransform  accumulate="none" additive="replace" attributeName="transform" calcMode="linear" dur="10s" fill="remove" repeatCount="indefinite" restart="always" type="rotate" values="-10 19.22 24.293; 10 19.22 24.293; -10 19.22 24.293">
		</animateTransform>
</path>
<linearGradient id="SVGID_2_" gradientUnits="userSpaceOnUse" x1="24.5468" y1="44.8252" x2="50.3416" y2="0.1183" gradientTransform="matrix(1 0 0 -1 0 66)">
	<stop  offset="0" style="stop-color:#F3F7FE"/>
	<stop  offset="0.45" style="stop-color:#F3F7FE"/>
	<stop  offset="1" style="stop-color:#DEEAFB"/>
</linearGradient>
<path class="st1" d="M61.6,36h-0.5c2.1-8.7-3.2-17.5-12-19.6c-6.8-1.7-14,1.3-17.7,7.2c-5.2-3.1-11.8-1.4-14.9,3.8
	c-1,1.7-1.5,3.6-1.5,5.5c0,0.6,0.1,1.2,0.2,1.8C9,35.9,4.8,42,6.1,48.3c1.1,5.4,5.8,9.4,11.4,9.4c0.3,0,0.5,0,0.8,0l0,0h43.4
	c6,0,10.9-4.9,10.9-10.9S67.6,36,61.6,36z"/>
<linearGradient id="SVGID_3_" gradientUnits="userSpaceOnUse" x1="24.7331" y1="11.7984" x2="28.7458" y2="4.8376" gradientTransform="matrix(1 0 0 -1 0 66)">
	<stop  offset="0" style="stop-color:#4286EE"/>
	<stop  offset="0.45" style="stop-color:#4286EE"/>
	<stop  offset="1" style="stop-color:#0950BC"/>
</linearGradient>
<line class="st2" x1="27.3" y1="53.9" x2="26.1" y2="61.5">
<animateTransform  accumulate="none" additive="replace" attributeName="transform" calcMode="linear" dur="0.7s" fill="remove" repeatCount="indefinite" restart="always" type="translate" values="1 -5; -2 10">
	</animateTransform>
<animate  accumulate="none" additive="replace" attributeName="opacity" calcMode="linear" dur="0.7s" fill="remove" repeatCount="indefinite" restart="always" values="0;1;1;0">
	</animate>
</line>
<linearGradient id="SVGID_4_" gradientUnits="userSpaceOnUse" x1="35.5916" y1="11.7984" x2="39.6043" y2="4.8376" gradientTransform="matrix(1 0 0 -1 0 66)">
	<stop  offset="0" style="stop-color:#4286EE"/>
	<stop  offset="0.45" style="stop-color:#4286EE"/>
	<stop  offset="1" style="stop-color:#0950BC"/>
</linearGradient>
<line class="st3" x1="38.2" y1="53.9" x2="37" y2="61.5">
<animateTransform  accumulate="none" additive="replace" attributeName="transform" begin="-0.4s" calcMode="linear" dur="0.7s" fill="remove" repeatCount="indefinite" restart="always" type="translate" values="1 -5; -2 10">
	</animateTransform>
<animate  accumulate="none" additive="replace" attributeName="opacity" begin="-0.4s" calcMode="linear" dur="0.7s" fill="remove" repeatCount="indefinite" restart="always" values="0;1;1;0">
	</animate>
</line>
<linearGradient id="SVGID_5_" gradientUnits="userSpaceOnUse" x1="46.45" y1="11.7984" x2="50.4627" y2="4.8376" gradientTransform="matrix(1 0 0 -1 0 66)">
	<stop  offset="0" style="stop-color:#4286EE"/>
	<stop  offset="0.45" style="stop-color:#4286EE"/>
	<stop  offset="1" style="stop-color:#0950BC"/>
</linearGradient>
<line class="st4" x1="49.1" y1="53.9" x2="47.9" y2="61.5">
<animateTransform  accumulate="none" additive="replace" attributeName="transform" begin="-0.2s" calcMode="linear" dur="0.7s" fill="remove" repeatCount="indefinite" restart="always" type="translate" values="1 -5; -2 10">
	</animateTransform>
<animate  accumulate="none" additive="replace" attributeName="opacity" begin="-0.2s" calcMode="linear" dur="0.7s" fill="remove" repeatCount="indefinite" restart="always" values="0;1;1;0">
	</animate>
</line>
</svg>
